C:/Program Files/Krita (x64)/bin/ffmpeg.exe -hide_banner -y -y -r 5 -start_number 0 -start_number_range 1 -i C:/Users/bbybe/Desktop/game art/anim/calc/frame%04d.png -i C:/Users/bbybe/Desktop/game art/anim/calc/KritaTempPalettegen_%06d.png -lavfi [0:v][1:v]paletteuse=dither=sierra2_4a:diff_mode=none -f gif -loop 0 -gifflags +transdiff C:/Users/bbybe/Desktop/game art/anim/calc/calc.gif
=====================================================
Input #0, image2, from 'C:/Users/bbybe/Desktop/game art/anim/calc/frame%04d.png':
  Duration: 00:00:00.52, start: 0.000000, bitrate: N/A
  Stream #0:0: Video: png, rgba(pc), 1461x1550 [SAR 11811:11811 DAR 1461:1550], 25 fps, 25 tbr, 25 tbn, 25 tbc
Input #1, image2, from 'C:/Users/bbybe/Desktop/game art/anim/calc/KritaTempPalettegen_%06d.png':
  Duration: 00:00:00.04, start: 0.000000, bitrate: N/A
  Stream #1:0: Video: png, rgba(pc), 16x16 [SAR 1:1 DAR 1:1], 25 fps, 25 tbr, 25 tbn, 25 tbc
Stream mapping:
  Stream #0:0 (png) -> paletteuse:default
  Stream #1:0 (png) -> paletteuse:palette
  paletteuse -> Stream #0:0 (gif)
Press [q] to stop, [?] for help
[image2 @ 0000021dfd04a880] Thread message queue blocking; consider raising the thread_queue_size option (current value: 8)
Output #0, gif, to 'C:/Users/bbybe/Desktop/game art/anim/calc/calc.gif':
  Metadata:
    encoder         : Lavf58.76.100
  Stream #0:0: Video: gif, pal8(pc, gbr/unknown/unknown, progressive), 1461x1550 [SAR 1:1 DAR 1461:1550], q=2-31, 200 kb/s, 5 fps, 100 tbn (default)
    Metadata:
      encoder         : Lavc58.134.100 gif
frame=    1 fps=0.0 q=-0.0 size=       0kB time=00:00:00.01 bitrate=   0.0kbits/s speed=0.103x    frame=   10 fps=0.0 q=-0.0 size=    1024kB time=00:00:01.81 bitrate=4634.6kbits/s speed=2.91x    frame=   13 fps=0.0 q=-0.0 Lsize=    1789kB time=00:00:02.41 bitrate=6080.0kbits/s speed=2.99x    
video:1789kB audio:0kB subtitle:0kB other streams:0kB global headers:0kB muxing overhead: 0.001092%
